<svg width="197" height="43" viewBox="0 0 197 43" fill="none" xmlns="http://www.w3.org/2000/svg">
<g filter="url(#filter0_d)">
<path d="M59.28 20.52C59.28 20.872 59.28 21.176 59.28 21.432C59.296 21.688 59.32 21.96 59.352 22.248L61.008 22.488V23.328C60.816 23.424 60.552 23.52 60.216 23.616C59.896 23.712 59.552 23.808 59.184 23.904C58.832 23.984 58.48 24.048 58.128 24.096C57.776 24.16 57.464 24.208 57.192 24.24H56.376C56.216 23.872 56.12 23.504 56.088 23.136C56.056 22.768 56.032 22.32 56.016 21.792H55.896C55.816 22.112 55.68 22.424 55.488 22.728C55.296 23.016 55.048 23.28 54.744 23.52C54.456 23.744 54.112 23.928 53.712 24.072C53.312 24.216 52.864 24.288 52.368 24.288C51.84 24.288 51.352 24.208 50.904 24.048C50.456 23.888 50.064 23.664 49.728 23.376C49.392 23.088 49.128 22.744 48.936 22.344C48.744 21.928 48.648 21.464 48.648 20.952C48.648 20.232 48.784 19.64 49.056 19.176C49.328 18.712 49.752 18.336 50.328 18.048C50.92 17.744 51.672 17.52 52.584 17.376C53.512 17.232 54.632 17.128 55.944 17.064C56.072 15.688 56.016 14.68 55.776 14.04C55.536 13.4 55.016 13.08 54.216 13.08C53.72 13.08 53.264 13.16 52.848 13.32L51.72 16.2H50.664C50.536 16.008 50.408 15.792 50.28 15.552C50.168 15.296 50.056 15.032 49.944 14.76C49.848 14.472 49.76 14.184 49.68 13.896C49.616 13.608 49.568 13.328 49.536 13.056C50.144 12.64 50.928 12.312 51.888 12.072C52.848 11.832 53.864 11.712 54.936 11.712C55.848 11.712 56.592 11.816 57.168 12.024C57.744 12.216 58.192 12.488 58.512 12.84C58.848 13.176 59.08 13.576 59.208 14.04C59.336 14.504 59.4 15 59.4 15.528C59.4 16.488 59.376 17.36 59.328 18.144C59.296 18.912 59.28 19.704 59.28 20.52ZM53.88 22.368C54.216 22.368 54.504 22.304 54.744 22.176C54.984 22.048 55.184 21.896 55.344 21.72C55.52 21.544 55.648 21.352 55.728 21.144C55.824 20.936 55.896 20.752 55.944 20.592V18.192C55.192 18.208 54.576 18.256 54.096 18.336C53.616 18.416 53.24 18.552 52.968 18.744C52.696 18.92 52.504 19.152 52.392 19.44C52.296 19.712 52.248 20.048 52.248 20.448C52.248 21.056 52.392 21.528 52.68 21.864C52.968 22.2 53.368 22.368 53.88 22.368ZM68.4874 28.8H61.8634V27.864C62.4074 27.608 62.9354 27.416 63.4474 27.288V13.704L61.8634 13.512V12.576C62.1194 12.464 62.4314 12.36 62.7994 12.264C63.1834 12.168 63.5754 12.088 63.9754 12.024C64.3754 11.944 64.7594 11.88 65.1274 11.832C65.5114 11.784 65.8314 11.744 66.0874 11.712H66.9034V14.4H66.9274C67.1994 13.632 67.6234 12.992 68.1994 12.48C68.7914 11.968 69.6074 11.712 70.6474 11.712C71.3514 11.712 71.9834 11.832 72.5434 12.072C73.1194 12.296 73.5994 12.656 73.9834 13.152C74.3834 13.632 74.6874 14.256 74.8954 15.024C75.1194 15.776 75.2314 16.68 75.2314 17.736C75.2314 18.744 75.0874 19.656 74.7994 20.472C74.5274 21.288 74.1274 21.976 73.5994 22.536C73.0874 23.096 72.4554 23.528 71.7034 23.832C70.9674 24.136 70.1274 24.288 69.1834 24.288C68.6394 24.288 68.2074 24.248 67.8874 24.168C67.5834 24.104 67.2554 23.984 66.9034 23.808V27.288C67.1594 27.32 67.4154 27.376 67.6714 27.456C67.9274 27.552 68.1994 27.688 68.4874 27.864V28.8ZM69.2554 13.632C68.7114 13.632 68.2234 13.824 67.7914 14.208C67.3754 14.592 67.0794 15.184 66.9034 15.984V22.368C67.1594 22.56 67.4314 22.704 67.7194 22.8C68.0074 22.88 68.3834 22.92 68.8474 22.92C69.7594 22.92 70.4314 22.48 70.8634 21.6C71.2954 20.72 71.5114 19.432 71.5114 17.736C71.5114 16.424 71.3434 15.416 71.0074 14.712C70.6874 13.992 70.1034 13.632 69.2554 13.632ZM83.1124 28.8H76.4884V27.864C77.0324 27.608 77.5604 27.416 78.0724 27.288V13.704L76.4884 13.512V12.576C76.7444 12.464 77.0564 12.36 77.4244 12.264C77.8084 12.168 78.2004 12.088 78.6004 12.024C79.0004 11.944 79.3844 11.88 79.7524 11.832C80.1364 11.784 80.4564 11.744 80.7124 11.712H81.5284V14.4H81.5524C81.8244 13.632 82.2484 12.992 82.8244 12.48C83.4164 11.968 84.2324 11.712 85.2724 11.712C85.9764 11.712 86.6084 11.832 87.1684 12.072C87.7444 12.296 88.2244 12.656 88.6084 13.152C89.0084 13.632 89.3124 14.256 89.5204 15.024C89.7444 15.776 89.8564 16.68 89.8564 17.736C89.8564 18.744 89.7124 19.656 89.4244 20.472C89.1524 21.288 88.7524 21.976 88.2244 22.536C87.7124 23.096 87.0804 23.528 86.3284 23.832C85.5924 24.136 84.7524 24.288 83.8084 24.288C83.2644 24.288 82.8324 24.248 82.5124 24.168C82.2084 24.104 81.8804 23.984 81.5284 23.808V27.288C81.7844 27.32 82.0404 27.376 82.2964 27.456C82.5524 27.552 82.8244 27.688 83.1124 27.864V28.8ZM83.8804 13.632C83.3364 13.632 82.8484 13.824 82.4164 14.208C82.0004 14.592 81.7044 15.184 81.5284 15.984V22.368C81.7844 22.56 82.0564 22.704 82.3444 22.8C82.6324 22.88 83.0084 22.92 83.4724 22.92C84.3844 22.92 85.0564 22.48 85.4884 21.6C85.9204 20.72 86.1364 19.432 86.1364 17.736C86.1364 16.424 85.9684 15.416 85.6324 14.712C85.3124 13.992 84.7284 13.632 83.8804 13.632ZM92.1214 22.296C92.1214 21.72 92.3054 21.256 92.6734 20.904C93.0414 20.552 93.5294 20.376 94.1374 20.376C94.7454 20.376 95.2414 20.552 95.6254 20.904C96.0094 21.256 96.2014 21.72 96.2014 22.296C96.2014 22.872 96.0094 23.336 95.6254 23.688C95.2414 24.024 94.7454 24.192 94.1374 24.192C93.5294 24.192 93.0414 24.024 92.6734 23.688C92.3054 23.336 92.1214 22.872 92.1214 22.296ZM108.655 22.056C108.543 22.376 108.359 22.672 108.103 22.944C107.847 23.2 107.535 23.432 107.167 23.64C106.815 23.848 106.407 24.008 105.943 24.12C105.495 24.232 105.023 24.288 104.527 24.288C103.471 24.288 102.559 24.144 101.791 23.856C101.039 23.552 100.415 23.128 99.9189 22.584C99.4229 22.024 99.0549 21.36 98.8149 20.592C98.5749 19.808 98.4549 18.944 98.4549 18C98.4549 15.968 99.0069 14.416 100.111 13.344C101.231 12.256 102.815 11.712 104.863 11.712C105.647 11.712 106.367 11.8 107.023 11.976C107.679 12.136 108.223 12.328 108.655 12.552C108.623 12.824 108.575 13.128 108.511 13.464C108.463 13.784 108.399 14.112 108.319 14.448C108.255 14.768 108.175 15.088 108.079 15.408C107.983 15.712 107.887 15.968 107.791 16.176H106.615L105.607 13.32C105.495 13.24 105.375 13.184 105.247 13.152C105.119 13.104 104.927 13.08 104.671 13.08C104.255 13.08 103.895 13.16 103.591 13.32C103.287 13.464 103.023 13.72 102.799 14.088C102.591 14.456 102.431 14.944 102.319 15.552C102.223 16.16 102.175 16.912 102.175 17.808C102.175 18.464 102.247 19.072 102.391 19.632C102.535 20.176 102.751 20.656 103.039 21.072C103.343 21.472 103.719 21.792 104.167 22.032C104.615 22.256 105.143 22.368 105.751 22.368C106.311 22.368 106.799 22.288 107.215 22.128C107.631 21.968 107.983 21.776 108.271 21.552L108.655 22.056ZM116.296 14.76C116.104 14.856 115.88 15.016 115.624 15.24C115.368 15.464 115.136 15.832 114.928 16.344V22.488C115.248 22.52 115.568 22.584 115.888 22.68C116.208 22.76 116.528 22.888 116.848 23.064V24H109.888V23.064C110.176 22.904 110.448 22.784 110.704 22.704C110.96 22.624 111.216 22.552 111.472 22.488V13.704L109.888 13.512V12.576C110.144 12.464 110.456 12.36 110.824 12.264C111.208 12.168 111.6 12.088 112 12.024C112.4 11.944 112.784 11.88 113.152 11.832C113.536 11.784 113.856 11.744 114.112 11.712H114.928V14.904H115.024C115.152 14.552 115.336 14.184 115.576 13.8C115.832 13.416 116.128 13.064 116.464 12.744C116.8 12.424 117.168 12.168 117.568 11.976C117.968 11.784 118.384 11.696 118.816 11.712C118.992 11.936 119.144 12.256 119.272 12.672C119.4 13.072 119.504 13.456 119.584 13.824V14.76H116.296ZM131.336 21.984C131.208 22.256 131 22.536 130.712 22.824C130.44 23.096 130.096 23.344 129.68 23.568C129.28 23.776 128.808 23.944 128.264 24.072C127.736 24.216 127.16 24.288 126.536 24.288C125.544 24.288 124.664 24.144 123.896 23.856C123.128 23.552 122.488 23.128 121.976 22.584C121.464 22.024 121.072 21.36 120.8 20.592C120.544 19.824 120.416 18.96 120.416 18C120.416 15.952 120.952 14.392 122.024 13.32C123.096 12.248 124.584 11.712 126.488 11.712C127.304 11.712 128.064 11.824 128.768 12.048C129.488 12.272 130.08 12.64 130.544 13.152C131.024 13.664 131.352 14.336 131.528 15.168C131.72 16 131.712 17.016 131.504 18.216H124.136C124.152 19.48 124.472 20.488 125.096 21.24C125.736 21.992 126.672 22.368 127.904 22.368C128.432 22.368 128.976 22.288 129.536 22.128C130.112 21.968 130.56 21.76 130.88 21.504L131.336 21.984ZM126.392 13.08C126.072 13.08 125.784 13.136 125.528 13.248C125.288 13.36 125.072 13.568 124.88 13.872C124.704 14.16 124.56 14.56 124.448 15.072C124.336 15.568 124.256 16.2 124.208 16.968H128.072C128.184 15.72 128.112 14.76 127.856 14.088C127.6 13.416 127.112 13.08 126.392 13.08ZM143.843 20.52C143.843 20.872 143.843 21.176 143.843 21.432C143.859 21.688 143.883 21.96 143.915 22.248L145.571 22.488V23.328C145.379 23.424 145.115 23.52 144.779 23.616C144.459 23.712 144.115 23.808 143.747 23.904C143.395 23.984 143.043 24.048 142.691 24.096C142.339 24.16 142.027 24.208 141.755 24.24H140.939C140.779 23.872 140.683 23.504 140.651 23.136C140.619 22.768 140.595 22.32 140.579 21.792H140.459C140.379 22.112 140.243 22.424 140.051 22.728C139.859 23.016 139.611 23.28 139.307 23.52C139.019 23.744 138.675 23.928 138.275 24.072C137.875 24.216 137.427 24.288 136.931 24.288C136.403 24.288 135.915 24.208 135.467 24.048C135.019 23.888 134.627 23.664 134.291 23.376C133.955 23.088 133.691 22.744 133.499 22.344C133.307 21.928 133.211 21.464 133.211 20.952C133.211 20.232 133.347 19.64 133.619 19.176C133.891 18.712 134.315 18.336 134.891 18.048C135.483 17.744 136.235 17.52 137.147 17.376C138.075 17.232 139.195 17.128 140.507 17.064C140.635 15.688 140.579 14.68 140.339 14.04C140.099 13.4 139.579 13.08 138.779 13.08C138.283 13.08 137.827 13.16 137.411 13.32L136.283 16.2H135.227C135.099 16.008 134.971 15.792 134.843 15.552C134.731 15.296 134.619 15.032 134.507 14.76C134.411 14.472 134.323 14.184 134.243 13.896C134.178 13.608 134.131 13.328 134.099 13.056C134.707 12.64 135.491 12.312 136.451 12.072C137.411 11.832 138.427 11.712 139.499 11.712C140.411 11.712 141.155 11.816 141.731 12.024C142.307 12.216 142.755 12.488 143.075 12.84C143.411 13.176 143.643 13.576 143.771 14.04C143.899 14.504 143.963 15 143.963 15.528C143.963 16.488 143.939 17.36 143.891 18.144C143.859 18.912 143.843 19.704 143.843 20.52ZM138.443 22.368C138.779 22.368 139.067 22.304 139.307 22.176C139.547 22.048 139.747 21.896 139.907 21.72C140.083 21.544 140.211 21.352 140.291 21.144C140.387 20.936 140.459 20.752 140.507 20.592V18.192C139.755 18.208 139.139 18.256 138.659 18.336C138.179 18.416 137.803 18.552 137.531 18.744C137.259 18.92 137.067 19.152 136.955 19.44C136.859 19.712 136.811 20.048 136.811 20.448C136.811 21.056 136.955 21.528 137.243 21.864C137.531 22.2 137.931 22.368 138.443 22.368ZM146.114 12.576C146.722 12.192 147.362 11.92 148.034 11.76V9.816C148.162 9.72 148.474 9.584 148.97 9.408C149.482 9.216 150.05 9.064 150.674 8.952H151.49V12H154.658V13.512H151.49V19.728C151.49 20.72 151.61 21.408 151.85 21.792C152.106 22.176 152.522 22.368 153.098 22.368C153.386 22.368 153.706 22.352 154.058 22.32C154.426 22.272 154.762 22.192 155.066 22.08L155.234 22.872C155.09 23.016 154.874 23.168 154.586 23.328C154.314 23.488 153.994 23.64 153.626 23.784C153.274 23.928 152.882 24.048 152.45 24.144C152.034 24.24 151.594 24.288 151.13 24.288C150.09 24.288 149.314 24.016 148.802 23.472C148.29 22.928 148.034 22.048 148.034 20.832V13.512H146.114V12.576ZM162.876 24H156.252V23.064C156.492 22.936 156.74 22.832 156.996 22.752C157.252 22.656 157.532 22.568 157.836 22.488V13.704L156.252 13.512V12.576C156.492 12.48 156.788 12.384 157.14 12.288C157.508 12.192 157.892 12.112 158.292 12.048C158.692 11.968 159.084 11.904 159.468 11.856C159.852 11.792 160.188 11.744 160.476 11.712H161.292V22.488C161.612 22.568 161.9 22.656 162.156 22.752C162.412 22.832 162.652 22.936 162.876 23.064V24ZM157.428 8.064C157.428 7.504 157.62 7.064 158.004 6.744C158.388 6.424 158.884 6.264 159.492 6.264C160.1 6.264 160.596 6.424 160.98 6.744C161.364 7.064 161.556 7.504 161.556 8.064C161.556 8.608 161.364 9.04 160.98 9.36C160.596 9.68 160.1 9.84 159.492 9.84C158.884 9.84 158.388 9.68 158.004 9.36C157.62 9.04 157.428 8.608 157.428 8.064ZM164.221 18C164.221 17.024 164.365 16.152 164.653 15.384C164.957 14.6 165.381 13.936 165.925 13.392C166.485 12.848 167.157 12.432 167.941 12.144C168.725 11.856 169.613 11.712 170.605 11.712C171.725 11.712 172.685 11.872 173.485 12.192C174.301 12.496 174.965 12.928 175.477 13.488C176.005 14.032 176.389 14.696 176.629 15.48C176.869 16.248 176.989 17.088 176.989 18C176.989 18.976 176.845 19.856 176.557 20.64C176.269 21.408 175.845 22.064 175.285 22.608C174.741 23.152 174.069 23.568 173.269 23.856C172.485 24.144 171.597 24.288 170.605 24.288C169.517 24.288 168.573 24.136 167.773 23.832C166.973 23.512 166.309 23.08 165.781 22.536C165.253 21.976 164.861 21.312 164.605 20.544C164.349 19.76 164.221 18.912 164.221 18ZM167.941 18C167.941 18.72 167.981 19.384 168.061 19.992C168.157 20.584 168.317 21.088 168.541 21.504C168.765 21.92 169.069 22.248 169.453 22.488C169.837 22.712 170.333 22.824 170.941 22.824C171.293 22.824 171.613 22.744 171.901 22.584C172.189 22.408 172.437 22.136 172.645 21.768C172.853 21.384 173.005 20.888 173.101 20.28C173.213 19.656 173.269 18.896 173.269 18C173.269 17.264 173.221 16.6 173.125 16.008C173.045 15.416 172.893 14.912 172.669 14.496C172.461 14.08 172.173 13.76 171.805 13.536C171.437 13.296 170.973 13.176 170.413 13.176C169.997 13.176 169.637 13.264 169.333 13.44C169.029 13.6 168.773 13.872 168.565 14.256C168.357 14.624 168.197 15.12 168.085 15.744C167.989 16.352 167.941 17.104 167.941 18ZM192.895 24H186.535V23.064C186.743 22.952 186.943 22.856 187.135 22.776C187.343 22.68 187.583 22.584 187.855 22.488V16.848C187.855 15.84 187.711 15.056 187.423 14.496C187.135 13.92 186.623 13.632 185.887 13.632C185.279 13.632 184.751 13.832 184.303 14.232C183.871 14.616 183.543 15.144 183.319 15.816V22.488C183.575 22.552 183.799 22.632 183.991 22.728C184.199 22.808 184.415 22.92 184.639 23.064V24H178.279V23.064C178.679 22.856 179.207 22.664 179.863 22.488V13.704L178.279 13.512V12.576C178.487 12.48 178.759 12.392 179.095 12.312C179.431 12.216 179.791 12.128 180.175 12.048C180.575 11.968 180.975 11.904 181.375 11.856C181.791 11.792 182.167 11.744 182.503 11.712H183.319V14.184H183.343C183.679 13.512 184.183 12.936 184.855 12.456C185.527 11.96 186.343 11.712 187.303 11.712C187.927 11.712 188.487 11.792 188.983 11.952C189.479 12.096 189.895 12.36 190.231 12.744C190.583 13.128 190.847 13.648 191.023 14.304C191.215 14.944 191.311 15.76 191.311 16.752V22.488C191.951 22.6 192.479 22.792 192.895 23.064V24Z" fill="black"/>
<circle opacity="0.7" cx="18" cy="14" r="14" fill="#0056EC"/>
<circle opacity="0.7" cx="26" cy="21" r="14" fill="#C8DBFB"/>
</g>
<defs>
<filter id="filter0_d" x="0" y="0" width="196.895" height="43" filterUnits="userSpaceOnUse" color-interpolation-filters="sRGB">
<feFlood flood-opacity="0" result="BackgroundImageFix"/>
<feColorMatrix in="SourceAlpha" type="matrix" values="0 0 0 0 0 0 0 0 0 0 0 0 0 0 0 0 0 0 127 0"/>
<feOffset dy="4"/>
<feGaussianBlur stdDeviation="2"/>
<feColorMatrix type="matrix" values="0 0 0 0 0 0 0 0 0 0 0 0 0 0 0 0 0 0 0.25 0"/>
<feBlend mode="normal" in2="BackgroundImageFix" result="effect1_dropShadow"/>
<feBlend mode="normal" in="SourceGraphic" in2="effect1_dropShadow" result="shape"/>
</filter>
</defs>
</svg>
